<?xml version="1.0" standalone="no"?>
<!DOCTYPE svg PUBLIC "-//W3C//DTD SVG 20010904//EN"
 "http://www.w3.org/TR/2001/REC-SVG-20010904/DTD/svg10.dtd">
<svg version="1.0" xmlns="http://www.w3.org/2000/svg"
 width="4000.000000pt" height="2366.000000pt" viewBox="0 0 4000.000000 2366.000000"
 preserveAspectRatio="xMidYMid meet">

<g transform="translate(0.000000,2366.000000) scale(0.100000,-0.100000)"
fill="#000000" stroke="none">
<path d="M0 11830 l0 -11830 20000 0 20000 0 0 11830 0 11830 -20000 0 -20000
0 0 -11830z m26030 2766 c0 -3 -4 -8 -10 -11 -5 -3 -10 -1 -10 4 0 6 5 11 10
11 6 0 10 -2 10 -4z m-30 -62 c-18 -21 -24 -10 -9 18 8 14 14 18 17 10 2 -7
-2 -19 -8 -28z m-56 -111 c-78 -140 -201 -280 -315 -355 -111 -73 -277 -126
-404 -127 -53 -1 -27 14 42 23 62 8 209 59 243 85 14 11 54 34 90 53 106 54
258 210 341 351 47 79 49 54 3 -30z m-7334 -1533 c0 -24 -15 -26 -24 -4 -4 9
-13 14 -21 10 -8 -3 -15 -1 -15 4 0 6 14 10 30 10 23 0 30 -4 30 -20z m4195 0
c3 -6 -1 -7 -9 -4 -18 7 -21 14 -7 14 6 0 13 -4 16 -10z m-179 -18 c31 -21 18
-67 -15 -54 -30 11 -41 35 -22 49 19 15 22 15 37 5z m360 -51 c-11 -18 -36
-13 -36 7 0 10 3 22 7 26 10 10 37 -20 29 -33z m139 -241 c3 -5 1 -10 -4 -10
-6 0 -11 5 -11 10 0 6 2 10 4 10 3 0 8 -4 11 -10z m-5269 -175 c41 -75 47 -84
82 -121 12 -14 22 -27 22 -30 0 -9 55 -53 67 -54 6 0 25 -11 41 -25 17 -14 37
-25 46 -25 9 0 22 -11 28 -25 6 -14 18 -25 25 -25 8 0 12 4 9 8 -2 4 -1 14 3
21 7 10 11 10 22 -2 27 -27 55 -37 67 -25 9 9 12 9 12 0 0 -6 7 -9 17 -5 10 4
14 2 10 -4 -4 -6 4 -10 19 -10 14 0 31 -9 38 -18 8 -11 27 -19 49 -20 29 -1
34 2 25 12 -6 8 -20 10 -34 7 -13 -3 -24 -2 -24 3 0 5 -11 16 -25 23 -14 7
-25 20 -25 27 0 12 3 11 16 -1 20 -20 28 -20 20 -1 -5 13 -2 14 15 5 16 -9 26
-8 43 4 21 13 25 13 39 -2 16 -15 18 -14 39 7 19 21 23 22 33 8 7 -10 16 -12
24 -7 11 6 9 10 -8 19 -11 7 -21 16 -21 22 0 6 6 7 17 1 12 -7 23 -3 42 14 26
24 56 35 33 12 -7 -7 -12 -17 -12 -22 0 -6 7 -3 15 8 11 14 22 17 45 13 16 -4
30 -3 30 2 0 14 -103 22 -113 8 -6 -8 -7 -7 -3 5 4 15 0 16 -24 11 -35 -6 -39
1 -9 17 13 7 24 8 32 2 7 -5 24 -10 40 -10 23 0 27 4 21 22 -6 20 -6 20 12 4
25 -22 74 -41 74 -28 0 6 16 10 35 10 28 0 35 -4 35 -20 0 -11 9 -25 20 -32
22 -14 26 -44 9 -68 -8 -13 -9 -12 -7 4 2 11 -5 21 -17 26 -18 7 -20 3 -22
-34 -3 -37 -1 -39 11 -23 8 11 17 14 20 8 7 -11 -27 -33 -46 -29 -7 2 -16 7
-20 13 -4 5 -10 6 -14 2 -4 -3 -2 -12 4 -20 7 -8 7 -18 2 -27 -7 -12 -11 -10
-19 10 -10 23 -11 23 -8 -10 2 -31 -2 -36 -28 -45 -16 -5 -37 -14 -45 -20 -78
-51 -224 -43 -398 23 -123 47 -255 146 -368 275 -60 69 -69 89 -24 55 17 -12
30 -26 30 -32 0 -5 2 -7 5 -4 3 3 -3 21 -14 39 -11 19 -21 43 -23 54 -2 10
-11 27 -21 37 -10 10 -15 23 -12 28 4 6 1 10 -4 10 -6 0 -11 8 -11 17 0 24 12
8 56 -72z m934 55 c0 -5 -2 -10 -4 -10 -3 0 -8 5 -11 10 -3 6 -1 10 4 10 6 0
11 -4 11 -10z m67 -18 c1 -10 -5 -19 -13 -19 -17 0 -18 9 -2 25 15 15 13 15
15 -6z m4196 -20 c-23 -38 -45 -62 -54 -62 -5 0 -5 8 -2 18 6 15 5 16 -11 2
-17 -13 -18 -12 -14 5 2 12 11 19 22 18 21 -1 56 26 56 45 0 7 4 10 10 7 6 -4
3 -17 -7 -33z m-1102 -88 c12 -13 19 -24 15 -24 -4 0 -2 -9 4 -21 7 -11 14
-18 17 -16 7 8 43 -26 43 -40 0 -7 4 -13 10 -13 5 0 7 7 3 15 -3 10 -1 15 7
13 7 -2 14 7 16 20 2 12 0 22 -6 22 -5 0 -7 7 -3 15 3 9 8 13 12 10 6 -7 8
-13 10 -45 0 -11 8 -20 16 -20 8 0 19 -9 25 -20 6 -11 16 -17 25 -14 22 9 18
32 -6 39 -21 7 -21 29 -1 31 42 5 46 6 34 11 -6 2 -10 9 -7 13 8 13 35 0 35
-16 0 -8 4 -14 9 -14 6 0 16 -12 23 -27 7 -14 20 -29 28 -31 12 -4 13 -2 3 9
-26 27 -12 29 15 2 17 -17 25 -32 20 -39 -5 -7 2 -15 18 -22 33 -16 34 -15 28
6 -3 11 -1 9 6 -4 7 -11 21 -25 33 -30 12 -6 16 -9 10 -7 -7 1 -13 -1 -13 -5
1 -17 18 -32 40 -35 13 -2 26 -9 28 -15 4 -14 52 -16 52 -2 0 5 7 7 16 3 13
-5 13 -7 2 -14 -7 -5 -10 -9 -6 -9 3 0 14 -3 24 -7 11 -4 15 -3 11 4 -12 20
23 23 42 4 21 -21 74 -17 108 9 17 13 33 15 72 10 28 -3 51 -3 51 2 0 4 -7 8
-15 8 -8 0 -15 7 -15 15 0 17 35 33 88 42 30 5 46 32 20 34 -10 0 -10 2 0 6 6
2 9 10 5 16 -4 6 0 8 10 4 18 -7 32 7 22 23 -5 8 -11 7 -21 -1 -11 -9 -14 -8
-14 4 0 11 8 15 30 12 17 -2 30 -1 30 4 0 4 6 16 14 27 14 18 14 18 12 -8 l-3
-28 38 22 c21 11 37 24 37 27 -1 3 2 20 7 36 8 30 21 45 40 45 6 0 4 -4 -3 -9
-13 -8 -34 -71 -33 -103 0 -9 -8 -19 -17 -22 -18 -6 -27 -66 -10 -66 15 0 27
44 14 53 -6 5 -1 6 12 2 16 -5 22 -2 22 9 0 9 5 16 11 16 5 0 8 4 4 9 -5 9 31
41 47 41 10 0 -33 -72 -51 -86 -8 -6 -11 -16 -7 -22 3 -6 2 -13 -4 -17 -5 -3
-10 -1 -10 5 0 6 -5 8 -11 5 -6 -4 -8 -13 -5 -21 7 -19 -79 -92 -167 -141
-146 -82 -259 -108 -465 -108 -131 0 -155 2 -162 16 -5 9 -23 22 -40 29 -16 7
-30 16 -30 20 0 4 -11 11 -25 14 -15 4 -30 18 -36 34 -6 15 -26 39 -44 55 -19
15 -37 37 -40 48 -4 11 -24 37 -45 59 -46 47 -101 156 -106 213 l-4 42 14 -44
c8 -24 25 -54 37 -67z m155 39 c-7 -7 -56 47 -56 62 0 6 14 -5 31 -23 17 -18
28 -36 25 -39z m-3206 53 c0 -3 -4 -8 -10 -11 -5 -3 -10 -1 -10 4 0 6 5 11 10
11 6 0 10 -2 10 -4z m4219 -21 c-13 -13 -28 -25 -32 -25 -5 0 -1 7 7 16 9 8
16 20 16 25 0 5 7 9 16 9 13 0 11 -5 -7 -25z m-4309 -6 c0 -5 14 -6 32 -2 22
4 29 3 24 -6 -4 -6 -12 -9 -17 -6 -5 4 -9 1 -9 -4 0 -18 -21 -12 -41 11 -23
26 -24 29 -4 22 8 -4 15 -10 15 -15z m145 -9 c3 -6 -1 -7 -9 -4 -18 7 -21 14
-7 14 6 0 13 -4 16 -10z m-230 -20 c3 -5 -1 -10 -9 -10 -9 0 -16 5 -16 10 0 6
4 10 9 10 6 0 13 -4 16 -10z m3490 0 c3 -5 1 -10 -4 -10 -6 0 -11 5 -11 10 0
6 2 10 4 10 3 0 8 -4 11 -10z m919 -6 c3 -8 2 -12 -4 -9 -6 3 -10 10 -10 16 0
14 7 11 14 -7z m-4328 -2 c6 -4 14 -14 17 -22 4 -12 6 -11 6 3 1 27 61 24 61
-3 0 -18 -11 -25 -34 -21 -5 1 -16 -5 -26 -14 -9 -8 -20 -12 -23 -8 -4 3 -7
-5 -8 -18 0 -13 -3 -18 -6 -11 -2 6 -11 12 -19 12 -8 0 -14 5 -14 10 0 6 7 10
15 10 8 0 19 9 25 19 9 17 6 20 -17 23 -34 4 -44 28 -11 28 13 0 28 -4 34 -8z
m3228 -18 c3 -8 2 -12 -4 -9 -6 3 -10 10 -10 16 0 14 7 11 14 -7z m926 6 c0
-5 -5 -10 -11 -10 -5 0 -7 5 -4 10 3 6 8 10 11 10 2 0 4 -4 4 -10z m-4030 -4
c0 -3 -4 -8 -10 -11 -5 -3 -10 -1 -10 4 0 6 5 11 10 11 6 0 10 -2 10 -4z
m-204 -23 c-4 -9 1 -25 13 -37 20 -21 20 -22 1 -34 -21 -13 -35 -1 -26 23 4
11 -3 15 -27 15 -21 0 -28 3 -19 9 11 6 10 10 -5 16 -14 7 -10 10 22 15 22 4
42 8 44 9 2 0 0 -6 -3 -16z m3410 -3 c9 0 12 -4 9 -10 -12 -19 -35 -10 -34 13
0 12 3 16 6 10 2 -7 11 -13 19 -13z m846 -2 c-6 -6 -15 -8 -19 -4 -4 4 -1 11
7 16 19 12 27 3 12 -12z m-4212 2 c0 -5 -8 -10 -17 -10 -15 0 -16 2 -3 10 19
12 20 12 20 0z m4180 -14 c0 -20 -51 -40 -61 -24 -11 18 0 31 22 25 12 -3 19
0 19 10 0 8 5 11 10 8 6 -3 10 -12 10 -19z m-4001 -2 c6 4 11 3 11 -2 0 -6 -8
-13 -17 -16 -17 -7 -36 12 -26 27 3 5 9 4 13 -3 4 -7 13 -9 19 -6z m7438 -98
c-3 -56 -15 -135 -26 -176 -11 -41 -30 -111 -42 -155 -18 -67 -20 -96 -15
-175 7 -118 17 -155 67 -252 21 -42 39 -83 39 -90 0 -7 7 -22 16 -33 12 -16
18 -18 34 -7 33 21 24 -6 -22 -63 -37 -45 -53 -56 -112 -76 -84 -29 -107 -54
-182 -199 -35 -66 -53 -93 -49 -72 5 26 3 37 -12 47 -10 9 -13 14 -5 15 6 0
12 12 12 28 0 15 9 45 19 67 10 22 21 53 25 69 4 17 17 44 29 60 24 34 24 29
12 311 -7 165 -6 172 18 245 42 123 92 262 111 305 24 56 66 209 66 240 0 17
4 24 11 19 8 -5 10 -38 6 -108z m-3357 94 c12 -8 11 -10 -7 -10 -13 0 -23 5
-23 10 0 13 11 13 30 0z m-4130 -20 c0 -5 -7 -10 -16 -10 -8 0 -12 5 -9 10 3
6 10 10 16 10 5 0 9 -4 9 -10z m-206 -15 c-4 -8 -8 -15 -10 -15 -2 0 -4 7 -4
15 0 8 4 15 10 15 5 0 7 -7 4 -15z m136 -17 c0 -5 -4 -8 -10 -8 -5 0 -10 10
-10 23 0 18 2 19 10 7 5 -8 10 -18 10 -22z m17 10 c-3 -8 -6 -5 -6 6 -1 11 2
17 5 13 3 -3 4 -12 1 -19z m3203 12 c0 -5 -5 -10 -11 -10 -5 0 -7 5 -4 10 3 6
8 10 11 10 2 0 4 -4 4 -10z m-3433 -16 c-3 -3 -12 -4 -19 -1 -8 3 -5 6 6 6 11
1 17 -2 13 -5z m331 -34 c3 -9 -1 -9 -16 -1 -31 17 -45 14 -39 -9 4 -14 0 -20
-11 -21 -14 0 -13 -2 3 -9 11 -5 14 -9 7 -9 -7 -1 -10 -5 -7 -11 3 -5 1 -10
-5 -10 -5 0 -18 16 -27 35 -9 19 -20 32 -25 29 -4 -3 -8 -2 -8 3 0 4 12 15 28
23 22 13 33 14 62 4 19 -7 36 -17 38 -24z m3912 11 c0 -10 -30 -24 -37 -17 -3
3 -2 9 2 15 8 13 35 15 35 2z m-480 -31 c0 -5 -2 -10 -4 -10 -3 0 -8 5 -11 10
-3 6 -1 10 4 10 6 0 11 -4 11 -10z m-822 -95 c-3 -3 -9 2 -12 12 -6 14 -5 15
5 6 7 -7 10 -15 7 -18z m1222 5 c0 -5 -5 -10 -11 -10 -5 0 -7 5 -4 10 3 6 8
10 11 10 2 0 4 -4 4 -10z m-85 -10 c3 -5 1 -10 -4 -10 -6 0 -11 5 -11 10 0 6
2 10 4 10 3 0 8 -4 11 -10z m-3635 -415 c-7 -9 -15 -13 -19 -10 -3 3 1 10 9
15 21 14 24 12 10 -5z m3070 -73 c0 -15 -2 -15 -10 -2 -13 20 -13 33 0 25 6
-3 10 -14 10 -23z m88 -47 c-3 -3 -9 2 -12 12 -6 14 -5 15 5 6 7 -7 10 -15 7
-18z m-68 -26 c0 -6 -4 -7 -10 -4 -5 3 -10 11 -10 16 0 6 5 7 10 4 6 -3 10
-11 10 -16z m135 11 c3 -5 2 -10 -4 -10 -5 0 -13 5 -16 10 -3 6 -2 10 4 10 5
0 13 -4 16 -10z m131 -25 c3 -8 15 -17 26 -21 11 -3 17 -8 14 -11 -5 -5 -76
35 -76 43 0 11 31 2 36 -11z m-211 -35 c3 -6 -1 -7 -9 -4 -18 7 -21 14 -7 14
6 0 13 -4 16 -10z m1235 -29 c-58 -19 -88 -17 -49 3 13 6 41 12 64 13 l40 2
-55 -18z m67 -17 c-3 -3 -12 -4 -19 -1 -8 3 -5 6 6 6 11 1 17 -2 13 -5z m146
-81 c-7 -2 -19 -2 -25 0 -7 3 -2 5 12 5 14 0 19 -2 13 -5z m-1158 -53 c8 -13
-5 -13 -25 0 -13 8 -13 10 2 10 9 0 20 -4 23 -10z m148 -7 c-7 -2 -21 -2 -30
0 -10 3 -4 5 12 5 17 0 24 -2 18 -5z m-1925 -48 c-3 -3 -9 2 -12 12 -6 14 -5
15 5 6 7 -7 10 -15 7 -18z m319 -7 c-3 -7 -5 -2 -5 12 0 14 2 19 5 13 2 -7 2
-19 0 -25z m73 7 c-7 -8 -17 -15 -23 -15 -6 0 -2 7 9 15 25 19 30 19 14 0z
m761 -12 c13 -16 12 -17 -3 -4 -17 13 -22 21 -14 21 2 0 10 -8 17 -17z m-898
-45 c6 -22 5 -22 -8 -4 -17 22 -20 40 -6 32 5 -3 11 -16 14 -28z m92 -8 c-4
-12 -9 -19 -12 -17 -3 3 -2 15 2 27 4 12 9 19 12 17 3 -3 2 -15 -2 -27z m1332
24 c-3 -3 -12 -4 -19 -1 -8 3 -5 6 6 6 11 1 17 -2 13 -5z m-1377 -34 c0 -11
-2 -20 -4 -20 -2 0 -6 9 -9 20 -3 11 -1 20 4 20 5 0 9 -9 9 -20z m212 -32 c-7
-7 -12 -8 -12 -2 0 14 12 26 19 19 2 -3 -1 -11 -7 -17z m-316 -55 c-5 -5 -36
50 -36 64 0 4 9 -7 21 -26 11 -18 18 -35 15 -38z m181 35 c-3 -7 -5 -2 -5 12
0 14 2 19 5 13 2 -7 2 -19 0 -25z m-137 2 c0 -5 -2 -10 -4 -10 -3 0 -8 5 -11
10 -3 6 -1 10 4 10 6 0 11 -4 11 -10z m86 -37 c-3 -7 -1 -13 4 -13 6 0 10 -8
10 -17 0 -15 -4 -13 -20 7 -24 30 -25 37 -5 37 9 0 14 -6 11 -14z m54 -39 c0
-8 -4 -14 -10 -14 -5 0 -10 9 -10 21 0 11 5 17 10 14 6 -3 10 -13 10 -21z
m-157 -21 c-3 -7 -10 -13 -15 -13 -6 0 -7 7 -4 16 3 9 6 21 6 27 0 7 4 7 9 -2
5 -8 7 -20 4 -28z m204 16 c2 -16 -1 -19 -9 -11 -5 5 -7 15 -4 21 10 15 12 14
13 -10z m2040 15 c-3 -3 -12 -4 -19 -1 -8 3 -5 6 6 6 11 1 17 -2 13 -5z
m-1510 -20 c-3 -3 -12 -4 -19 -1 -8 3 -5 6 6 6 11 1 17 -2 13 -5z m-579 -119
c0 -16 -2 -15 -8 5 -4 14 -8 36 -8 50 0 22 1 22 8 -5 4 -16 8 -39 8 -50z
m-144 6 c-4 -17 -9 -30 -11 -27 -3 2 -2 19 2 36 9 41 17 33 9 -9z m224 4 c-3
-3 -9 2 -12 12 -6 14 -5 15 5 6 7 -7 10 -15 7 -18z m30 -10 c-6 -14 -13 -23
-16 -21 -7 7 9 46 18 46 5 0 4 -11 -2 -25z m-298 5 c0 -5 -5 -10 -11 -10 -5 0
-7 5 -4 10 3 6 8 10 11 10 2 0 4 -4 4 -10z m1407 -16 c-3 -3 -12 -4 -19 -1 -8
3 -5 6 6 6 11 1 17 -2 13 -5z m-1378 -89 c0 -5 -6 -1 -14 9 -8 10 -11 24 -8
29 6 10 21 -16 22 -38z m-444 25 c3 -5 1 -10 -4 -10 -6 0 -11 5 -11 10 0 6 2
10 4 10 3 0 8 -4 11 -10z m555 -40 c0 -5 -5 -10 -11 -10 -5 0 -7 5 -4 10 3 6
8 10 11 10 2 0 4 -4 4 -10z m1473 -7 c-13 -2 -33 -2 -45 0 -13 2 -3 4 22 4 25
0 35 -2 23 -4z m-803 -44 c0 -14 -17 -10 -23 5 -4 10 -1 13 9 9 7 -3 14 -9 14
-14z m390 -15 c0 -2 -7 -4 -15 -4 -8 0 -15 4 -15 10 0 5 7 7 15 4 8 -4 15 -8
15 -10z m-1576 -10 c3 -8 2 -12 -4 -9 -6 3 -10 10 -10 16 0 14 7 11 14 -7z
m1272 -12 c-4 -3 -14 2 -24 12 -16 18 -16 18 6 6 13 -6 21 -14 18 -18z m-26
-18 c0 -2 -9 0 -20 6 -11 6 -20 13 -20 16 0 2 9 0 20 -6 11 -6 20 -13 20 -16z
m590 6 c8 -5 11 -10 5 -10 -5 0 -17 5 -25 10 -8 5 -10 10 -5 10 6 0 17 -5 25
-10z m-1593 -22 c-3 -8 -6 -5 -6 6 -1 11 2 17 5 13 3 -3 4 -12 1 -19z m1703 7
c0 -1 -11 -5 -25 -7 -16 -3 -25 -1 -25 7 0 8 9 10 25 7 14 -2 25 -6 25 -7z
m-745 -5 c3 -5 2 -10 -4 -10 -5 0 -13 5 -16 10 -3 6 -2 10 4 10 5 0 13 -4 16
-10z m585 -10 c13 -8 13 -10 -2 -10 -9 0 -20 5 -23 10 -8 13 5 13 25 0z m-685
-10 c8 -13 -5 -13 -25 0 -13 8 -13 10 2 10 9 0 20 -4 23 -10z m-828 -32 c-3
-7 -5 -2 -5 12 0 14 2 19 5 13 2 -7 2 -19 0 -25z m1113 11 c0 -6 -4 -7 -10 -4
-5 3 -10 11 -10 16 0 6 5 7 10 4 6 -3 10 -11 10 -16z m-210 -21 c0 -6 -6 -5
-15 2 -8 7 -15 14 -15 16 0 2 7 1 15 -2 8 -4 15 -11 15 -16z m130 -3 c14 -8
21 -14 15 -14 -5 0 -21 6 -35 14 -14 8 -20 14 -15 14 6 0 21 -6 35 -14z m10
-49 c0 -3 -13 1 -30 7 -16 6 -30 15 -30 19 0 5 14 2 30 -7 17 -9 30 -17 30
-19z m-994 -2 c-21 -20 -28 -17 -14 5 7 11 16 17 20 15 5 -3 2 -12 -6 -20z
m1205 9 c13 -16 12 -17 -3 -4 -17 13 -22 21 -14 21 2 0 10 -8 17 -17z m-1494
-35 c-3 -8 -6 -5 -6 6 -1 11 2 17 5 13 3 -3 4 -12 1 -19z m370 -15 c-3 -10 -5
-4 -5 12 0 17 2 24 5 18 2 -7 2 -21 0 -30z m943 33 c0 -3 -4 -8 -10 -11 -5 -3
-10 -1 -10 4 0 6 5 11 10 11 6 0 10 -2 10 -4z m94 -5 c4 -5 -3 -7 -14 -4 -23
6 -26 13 -6 13 8 0 17 -4 20 -9z m150 -7 c3 -7 -3 -10 -15 -7 -26 7 -32 19 -9
19 11 0 22 -6 24 -12z m-921 -11 c3 -5 1 -17 -3 -28 -6 -17 -7 -16 -12 8 -5
25 5 37 15 20z m58 -25 c11 -21 11 -22 -4 -9 -10 7 -17 17 -17 22 0 15 9 10
21 -13z m664 -8 c-3 -5 -14 -6 -26 -3 -15 4 -17 8 -8 13 15 10 41 1 34 -10z
m87 -18 c11 -13 8 -12 -19 2 -18 9 -33 18 -33 20 0 9 41 -8 52 -22z m-695 -24
c-3 -8 -6 -5 -6 6 -1 11 2 17 5 13 3 -3 4 -12 1 -19z m552 -15 c2 -2 0 -3 -6
-3 -6 0 -21 9 -34 21 l-24 20 30 -17 c17 -10 32 -19 34 -21z m42 20 c13 -16
12 -17 -3 -4 -17 13 -22 21 -14 21 2 0 10 -8 17 -17z m29 -58 c0 -11 -19 -4
-41 15 l-24 21 33 -16 c17 -8 32 -18 32 -20z m143 -65 c5 -4 -3 -5 -17 -3 -15
3 -29 10 -32 15 -7 11 36 1 49 -12z m-186 4 c-3 -3 -12 -4 -19 -1 -8 3 -5 6 6
6 11 1 17 -2 13 -5z m128 -12 c-3 -3 -11 0 -18 7 -9 10 -8 11 6 5 10 -3 15 -9
12 -12z m98 -22 c14 0 18 -3 11 -10 -11 -11 -64 3 -64 16 0 3 7 3 16 0 9 -3
25 -6 37 -6z m-233 -30 c8 -5 11 -10 5 -10 -5 0 -17 5 -25 10 -8 5 -10 10 -5
10 6 0 17 -5 25 -10z m217 -16 c-3 -3 -12 -4 -19 -1 -8 3 -5 6 6 6 11 1 17 -2
13 -5z m-162 -34 c3 -6 -1 -7 -9 -4 -18 7 -21 14 -7 14 6 0 13 -4 16 -10z m86
-4 c5 3 9 0 9 -5 0 -13 -6 -13 -39 -4 -23 6 -23 7 -5 13 10 4 21 3 22 -1 2 -5
8 -7 13 -3z m-38 -33 c-7 -2 -19 -2 -25 0 -7 3 -2 5 12 5 14 0 19 -2 13 -5z
m-148 -23 c13 -6 15 -9 5 -9 -8 0 -22 4 -30 9 -18 12 -2 12 25 0z m-74 -47
c13 -17 13 -17 -6 -3 -11 8 -22 16 -24 17 -2 2 0 3 6 3 6 0 17 -8 24 -17z m74
-1 c-3 -3 -11 0 -18 7 -9 10 -8 11 6 5 10 -3 15 -9 12 -12z m190 8 c7 -12 -2
-12 -30 0 -19 8 -19 9 2 9 12 1 25 -3 28 -9z m-210 -40 c3 -6 -1 -7 -9 -4 -18
7 -21 14 -7 14 6 0 13 -4 16 -10z m193 -30 c20 -7 29 -17 24 -22 -12 -12 -72
23 -72 42 0 9 3 11 8 4 4 -5 22 -16 40 -24z m-228 -15 c16 -9 19 -14 9 -15 -8
0 -24 7 -35 15 -24 18 -7 19 26 0z m-185 -23 c-3 -3 -11 0 -18 7 -9 10 -8 11
6 5 10 -3 15 -9 12 -12z m372 -8 c-3 -3 -12 -4 -19 -1 -8 3 -5 6 6 6 11 1 17
-2 13 -5z m73 -14 c0 -13 -30 -13 -50 0 -11 7 -7 10 18 10 17 0 32 -4 32 -10z
m66 -5 c10 -8 29 -15 42 -15 22 0 30 -14 13 -25 -12 -7 -102 40 -94 49 9 9 17
7 39 -9z m-216 -15 c0 -5 -7 -7 -15 -4 -8 4 -15 8 -15 10 0 2 7 4 15 4 8 0 15
-4 15 -10z m80 0 c8 -5 11 -10 5 -10 -5 0 -17 5 -25 10 -8 5 -10 10 -5 10 6 0
17 -5 25 -10z m-100 -38 c14 -6 21 -11 17 -11 -15 -2 -102 22 -110 29 -11 10
60 -4 93 -18z m535 10 c-3 -3 -11 0 -18 7 -9 10 -8 11 6 5 10 -3 15 -9 12 -12z
m-90 -2 c3 -5 2 -10 -4 -10 -5 0 -13 5 -16 10 -3 6 -2 10 4 10 5 0 13 -4 16
-10z m-585 -10 c0 -5 -4 -10 -9 -10 -6 0 -13 5 -16 10 -3 6 1 10 9 10 9 0 16
-4 16 -10z m530 -11 c9 -6 0 -7 -25 -3 -22 4 -47 11 -55 15 -9 6 0 7 25 3 22
-4 47 -11 55 -15z m-335 -9 c3 -5 2 -10 -4 -10 -5 0 -13 5 -16 10 -3 6 -2 10
4 10 5 0 13 -4 16 -10z m253 -5 c2 -2 0 -5 -5 -8 -4 -3 -21 1 -38 8 l-30 14
35 -6 c19 -3 36 -7 38 -8z m-181 -31 c-3 -3 -12 -4 -19 -1 -8 3 -5 6 6 6 11 1
17 -2 13 -5z m-452 -84 c3 -6 -1 -7 -9 -4 -18 7 -21 14 -7 14 6 0 13 -4 16
-10z m100 -69 c-8 -7 -65 21 -60 30 3 4 19 0 35 -9 16 -9 27 -18 25 -21z m-2
-59 c19 -17 22 -32 7 -32 -5 0 -10 6 -10 14 0 8 -9 17 -19 21 -11 3 -25 13
-33 22 -12 15 -11 15 12 3 14 -7 33 -19 43 -28z m232 28 c3 -5 2 -10 -4 -10
-5 0 -13 5 -16 10 -3 6 -2 10 4 10 5 0 13 -4 16 -10z m315 -10 c8 -5 11 -10 5
-10 -5 0 -17 5 -25 10 -8 5 -10 10 -5 10 6 0 17 -5 25 -10z m-674 -28 c-4 -3
-14 2 -24 12 -16 18 -16 18 6 6 13 -6 21 -14 18 -18z m256 -19 c20 -18 25 -40
6 -23 -7 6 -22 17 -33 25 -14 10 -16 14 -6 15 8 0 23 -7 33 -17z m210 -31 c8
-8 5 -9 -11 -5 -12 3 -24 9 -26 13 -8 12 23 6 37 -8z m-91 -38 c38 -25 69 -48
69 -51 0 -3 -10 2 -22 10 -44 31 -111 67 -124 67 -8 0 -14 5 -14 10 0 19 22
10 91 -36z m134 6 c3 -5 2 -10 -4 -10 -5 0 -13 5 -16 10 -3 6 -2 10 4 10 5 0
13 -4 16 -10z m-295 -10 c8 -5 11 -10 5 -10 -5 0 -17 5 -25 10 -8 5 -10 10 -5
10 6 0 17 -5 25 -10z m3832 -67 c-5 -10 -19 -40 -32 -68 -67 -143 -221 -353
-357 -487 -163 -161 -276 -240 -431 -304 -90 -37 -269 -74 -356 -74 -42 1 -48
3 -32 11 10 6 46 15 80 19 106 15 179 32 231 55 28 12 60 25 73 29 30 10 153
79 213 121 113 77 290 241 362 336 103 133 153 210 229 348 18 32 35 44 20 14z
m-9465 -57 c-5 -38 -3 -45 16 -55 17 -9 26 -27 34 -69 10 -54 52 -151 93 -217
10 -16 19 -36 19 -43 1 -7 13 -31 29 -55 15 -23 29 -47 32 -52 15 -32 123
-185 130 -185 5 0 11 -8 14 -17 3 -10 16 -29 29 -43 13 -14 57 -68 99 -120 89
-111 201 -230 241 -254 15 -9 35 -32 44 -51 9 -19 20 -32 24 -29 4 2 29 -16
56 -41 134 -128 206 -193 248 -225 25 -19 56 -44 68 -55 12 -12 51 -36 87 -55
36 -18 86 -47 112 -64 25 -17 64 -42 86 -55 22 -13 60 -41 84 -62 23 -22 48
-39 55 -39 7 0 27 -14 45 -30 70 -63 121 -100 140 -100 11 0 34 -15 52 -34 17
-18 55 -45 84 -60 28 -14 52 -30 52 -35 0 -5 22 -17 49 -26 30 -10 56 -26 66
-41 9 -14 31 -32 49 -39 17 -7 44 -25 58 -40 14 -14 39 -28 55 -31 15 -3 35
-11 43 -18 8 -7 52 -30 98 -52 45 -21 82 -42 82 -46 0 -5 8 -8 18 -8 10 0 29
-11 41 -24 13 -13 35 -27 49 -31 15 -4 36 -14 47 -24 29 -26 136 -81 157 -81
10 0 18 -4 18 -10 0 -5 6 -10 13 -10 7 0 38 -18 67 -40 29 -22 58 -40 63 -40
5 0 26 -13 46 -28 20 -16 62 -44 93 -63 35 -20 58 -41 58 -51 0 -17 12 -23 35
-18 6 1 17 3 27 5 9 2 24 -2 34 -10 15 -10 16 -16 6 -28 -18 -22 2 -33 74 -40
95 -10 98 -12 80 -64 -11 -35 3 -48 25 -24 38 40 69 20 49 -30 -10 -24 -10
-33 -1 -42 10 -9 17 -6 33 16 16 22 23 25 34 16 8 -6 14 -18 14 -26 0 -17 60
-69 74 -65 15 5 26 -20 26 -62 0 -35 2 -38 24 -32 14 3 27 3 29 -1 10 -16 -23
-200 -43 -248 -12 -28 -26 -72 -31 -99 -5 -27 -23 -76 -39 -109 -17 -33 -30
-75 -30 -93 0 -19 -6 -34 -15 -38 -8 -3 -15 -13 -15 -22 0 -20 -35 -135 -55
-179 -24 -54 -85 -231 -85 -246 0 -9 -7 -24 -15 -35 -8 -10 -15 -29 -15 -41 0
-12 -4 -24 -9 -27 -4 -3 -11 -25 -14 -49 -3 -23 -13 -56 -21 -72 -9 -17 -16
-39 -16 -50 0 -11 -18 -74 -40 -140 -22 -66 -58 -174 -80 -240 -22 -66 -51
-147 -64 -180 -13 -33 -34 -93 -47 -133 -13 -40 -32 -80 -41 -89 -10 -9 -18
-27 -18 -40 0 -28 -24 -40 -46 -22 -13 11 -14 9 -9 -13 4 -16 1 -37 -9 -55
-15 -28 -16 -28 -22 -5 -5 17 -11 21 -28 16 -11 -4 -22 -11 -24 -15 -2 -5 -10
-9 -17 -9 -8 0 -18 -7 -23 -16 -13 -23 -45 -10 -77 32 -20 26 -24 39 -16 47
19 19 13 102 -9 128 -19 23 -21 23 -34 6 -13 -17 -19 -18 -53 -7 -49 16 -62
28 -43 40 9 6 17 5 21 -2 9 -14 49 8 49 27 0 18 -14 19 -41 4 -16 -8 -26 -7
-44 5 -14 9 -35 16 -49 16 -16 0 -26 7 -30 23 -3 12 -20 29 -38 37 -18 8 -37
24 -43 36 -5 11 -27 35 -47 53 -21 18 -38 41 -38 50 0 24 -20 41 -47 41 -18 0
-23 5 -23 28 0 20 -8 32 -30 45 -16 10 -30 22 -30 27 0 5 -33 43 -72 85 -40
42 -93 101 -118 131 -25 30 -63 75 -85 99 -50 54 -113 137 -141 183 -11 19
-28 38 -37 44 -9 5 -17 15 -17 23 0 8 -19 37 -42 64 -69 79 -104 124 -118 151
-7 14 -30 44 -51 67 -22 24 -39 53 -39 66 0 14 -14 36 -35 54 -23 21 -35 40
-35 57 0 16 -6 26 -14 26 -8 0 -18 9 -21 20 -3 11 -10 20 -13 20 -4 0 -16 17
-27 38 -11 20 -31 51 -45 68 -24 30 -45 63 -81 125 -9 16 -36 54 -59 86 -24
31 -50 75 -58 98 -7 22 -22 48 -33 58 -10 10 -30 40 -44 68 -14 27 -35 59 -46
70 -23 23 -92 137 -95 157 -1 6 -14 26 -28 43 -14 17 -26 34 -26 39 0 5 -6 15
-13 22 -7 7 -18 25 -24 41 -7 15 -19 27 -28 27 -10 0 -15 10 -15 29 0 21 -10
37 -35 58 -19 15 -36 39 -38 53 -3 16 -11 26 -25 28 -12 2 -22 8 -22 14 0 6
-14 27 -31 47 -72 85 -99 124 -99 143 0 13 -12 25 -40 36 -33 14 -40 22 -40
46 0 18 -9 35 -26 48 -17 14 -24 27 -21 40 3 11 -1 22 -9 25 -8 3 -13 12 -10
19 3 8 -10 26 -29 41 -23 18 -35 37 -35 52 0 28 -26 61 -47 61 -8 0 -13 7 -11
18 2 9 -9 27 -24 40 -16 13 -28 31 -28 39 0 19 -66 160 -79 167 -5 3 -7 14 -4
24 2 10 -14 50 -36 89 -23 38 -41 80 -41 92 0 12 -7 24 -15 27 -8 4 -15 15
-15 25 0 10 -9 33 -20 51 -11 18 -20 47 -20 64 0 17 -6 37 -14 43 -7 6 -16 26
-20 43 -4 18 -16 52 -27 76 -14 27 -19 53 -16 71 3 15 2 32 -2 37 -12 13 -41
229 -48 358 -13 242 47 567 134 729 33 59 48 61 40 3z m7737 -326 c43 -21 150
-109 142 -117 -2 -3 -30 12 -62 32 -73 47 -96 55 -117 44 -23 -13 -22 -56 4
-149 11 -41 22 -86 25 -100 l4 -25 -9 25 c-5 14 -19 50 -31 80 -12 30 -26 70
-31 88 -8 25 -17 34 -40 39 l-29 6 25 23 c14 13 25 34 25 49 0 20 5 25 27 25
15 0 45 -9 67 -20z m43 -452 c-3 -8 -6 -5 -6 6 -1 11 2 17 5 13 3 -3 4 -12 1
-19z m43 -82 c0 -19 -9 -20 -32 -3 -11 9 -14 22 -11 40 l5 27 19 -24 c11 -13
19 -31 19 -40z m-135 -566 c3 -6 -4 -10 -17 -10 -18 0 -20 2 -8 10 19 12 18
12 25 0z m-55 -29 c0 -5 -7 -11 -15 -15 -15 -5 -20 5 -8 17 9 10 23 9 23 -2z
m43 -58 c-3 -7 0 -13 6 -13 6 0 11 -7 11 -15 0 -8 7 -15 16 -15 8 0 12 -5 8
-11 -3 -6 5 -23 19 -37 30 -33 111 -150 120 -174 9 -25 -2 -48 -19 -41 -8 3
-20 0 -28 -6 -29 -25 -54 0 -62 63 -2 17 -7 32 -12 35 -4 3 -9 15 -10 26 -2
11 -8 22 -13 23 -5 2 -9 8 -9 14 0 5 -11 24 -25 42 -14 18 -28 47 -31 64 -4
18 -10 32 -15 32 -5 0 -6 6 -3 14 3 8 16 13 28 12 14 0 22 -6 19 -13z m-33
-83 c0 -5 -4 -10 -10 -10 -5 0 -10 5 -10 10 0 6 5 10 10 10 6 0 10 -4 10 -10z
m113 -281 c-6 -6 -9 -17 -7 -24 3 -7 -4 -15 -15 -18 -12 -3 -21 -3 -21 -1 0 9
25 49 35 56 14 10 20 -1 8 -13z m-2641 -924 c131 -10 295 -33 318 -45 10 -5
31 -10 47 -10 16 0 44 -9 64 -19 51 -28 165 -61 208 -61 20 0 41 -4 46 -9 6
-5 35 -16 65 -25 59 -17 68 -22 88 -48 12 -15 9 -26 -17 -80 -42 -84 -68 -126
-116 -182 -22 -26 -49 -63 -60 -84 -11 -20 -32 -53 -47 -73 -16 -20 -28 -43
-28 -51 0 -8 -11 -25 -25 -38 -13 -12 -23 -25 -23 -29 1 -3 -6 -24 -16 -46
-30 -65 -24 -189 13 -305 17 -52 31 -110 31 -130 0 -20 4 -61 10 -91 5 -30 11
-108 14 -174 l6 -120 -20 50 c-10 28 -47 129 -81 225 -150 424 -317 774 -580
1219 -52 88 -65 119 -58 132 7 14 15 16 39 9 16 -5 71 -11 122 -15z"/>
<path d="M18748 12203 c6 -2 12 -12 12 -20 0 -13 3 -13 15 -3 19 16 10 30 -18
29 -12 0 -16 -3 -9 -6z"/>
<path d="M18710 12180 c0 -5 7 -10 16 -10 8 0 12 5 9 10 -3 6 -10 10 -16 10
-5 0 -9 -4 -9 -10z"/>
<path d="M18577 12138 c-11 -29 -5 -33 42 -30 27 2 52 -1 55 -6 3 -6 16 -7 29
-4 19 5 18 7 -13 15 -19 4 -47 11 -62 14 -16 3 -28 9 -28 14 0 14 -17 11 -23
-3z"/>
<path d="M18755 12140 c-3 -5 -1 -10 4 -10 6 0 11 5 11 10 0 6 -2 10 -4 10 -3
0 -8 -4 -11 -10z"/>
<path d="M18184 12100 c0 -20 7 -25 19 -14 7 7 -2 34 -12 34 -4 0 -7 -9 -7
-20z"/>
<path d="M18410 12101 c0 -6 4 -13 10 -16 6 -3 7 1 4 9 -7 18 -14 21 -14 7z"/>
<path d="M18445 12100 c3 -5 8 -10 11 -10 2 0 4 5 4 10 0 6 -5 10 -11 10 -5 0
-7 -4 -4 -10z"/>
<path d="M18385 12090 c3 -5 8 -10 11 -10 2 0 4 5 4 10 0 6 -5 10 -11 10 -5 0
-7 -4 -4 -10z"/>
<path d="M18522 12088 c6 -18 28 -21 28 -4 0 9 -7 16 -16 16 -9 0 -14 -5 -12
-12z"/>
<path d="M18310 12050 c0 -5 5 -10 11 -10 5 0 7 5 4 10 -3 6 -8 10 -11 10 -2
0 -4 -4 -4 -10z"/>
<path d="M18633 12046 c2 -6 16 -12 31 -13 17 -1 26 2 23 10 -2 7 -16 12 -31
13 -15 1 -25 -4 -23 -10z"/>
<path d="M22210 12211 c0 -10 -8 -12 -30 -8 -16 4 -32 2 -35 -3 -3 -6 0 -10 8
-10 8 0 21 -7 28 -16 7 -9 24 -20 37 -25 13 -5 21 -12 19 -16 -3 -5 8 -8 24
-9 19 -1 29 4 29 13 0 8 -4 12 -9 9 -10 -7 -24 22 -16 34 3 5 -5 12 -17 16
-13 4 -26 12 -30 18 -5 7 -8 7 -8 -3z"/>
<path d="M22987 12184 c2 -7 11 -10 19 -7 19 7 18 10 -5 16 -13 3 -18 1 -14
-9z"/>
<path d="M22950 12179 c0 -5 5 -7 10 -4 6 3 10 8 10 11 0 2 -4 4 -10 4 -5 0
-10 -5 -10 -11z"/>
<path d="M22987 12145 c3 -8 9 -12 14 -9 12 7 11 11 -5 17 -10 4 -13 1 -9 -8z"/>
<path d="M22305 12140 c-4 -6 7 -10 24 -10 17 0 31 5 31 10 0 6 -11 10 -24 10
-14 0 -28 -4 -31 -10z"/>
<path d="M22337 12113 c-15 -14 -7 -34 12 -28 13 4 20 0 24 -16 3 -11 10 -18
16 -15 14 9 -9 46 -29 46 -13 0 -13 1 0 10 13 8 13 10 -1 10 -9 0 -19 -3 -22
-7z"/>
<path d="M22888 12093 c-10 -2 -18 -8 -18 -13 0 -10 38 -1 46 11 5 9 1 10 -28
2z"/>
<path d="M22198 12061 c18 -17 36 -31 39 -31 11 0 -31 41 -52 52 -11 6 -5 -4
13 -21z"/>
<path d="M22420 12065 c-8 -9 -8 -15 -2 -15 12 0 26 19 19 26 -2 2 -10 -2 -17
-11z"/>
<path d="M22570 12041 c0 -6 5 -13 10 -16 6 -3 10 1 10 9 0 9 -4 16 -10 16 -5
0 -10 -4 -10 -9z"/>
<path d="M22295 12000 c-3 -5 3 -10 15 -10 12 0 18 5 15 10 -3 6 -10 10 -15
10 -5 0 -12 -4 -15 -10z"/>
<path d="M18850 12340 c-12 -8 -11 -10 8 -10 12 0 22 5 22 10 0 13 -11 13 -30
0z"/>
<path d="M18867 12233 c-4 -3 -7 -11 -7 -17 0 -6 5 -5 12 2 6 6 9 14 7 17 -3
3 -9 2 -12 -2z"/>
<path d="M19637 6434 c-10 -11 -8 -44 2 -44 6 0 13 4 16 10 8 12 -9 43 -18 34z"/>
<path d="M19740 6126 c0 -9 5 -16 10 -16 6 0 10 4 10 9 0 6 -4 13 -10 16 -5 3
-10 -1 -10 -9z"/>
<path d="M19010 4150 c0 -5 5 -10 10 -10 6 0 10 5 10 10 0 6 -4 10 -10 10 -5
0 -10 -4 -10 -10z"/>
</g>
</svg>
